<svg width="300" height="300" viewBox="0 0 300 300" fill="none" xmlns="http://www.w3.org/2000/svg">
<circle cx="150" cy="150" r="150" fill="#FF618E"/>
<g filter="url(#filter0_d_10_4)">
<path d="M118.88 87.2C119.947 90.08 120.533 92 120.64 92.96C120.853 94.9867 120.107 96.6933 118.4 98.08C118.4 98.1867 118.293 98.3467 118.08 98.56C119.04 103.573 119.253 108.267 118.72 112.64C118.187 117.013 117.493 121.227 116.64 125.28C122.4 115.467 126.987 108.267 130.4 103.68C137.44 94.1867 144 87.4133 150.08 83.36C152.107 82.1867 154.56 81.3333 157.44 80.8C160.427 80.16 163.253 80.0533 165.92 80.48C168.587 80.9067 170.773 81.9733 172.48 83.68C174.293 85.3867 175.093 87.9467 174.88 91.36C171.893 112.16 168.693 131.573 165.28 149.6C161.867 167.52 157.44 184.64 152 200.96V201.28H151.84C150.56 205.12 147.36 207.84 142.24 209.44C137.227 210.933 132.747 211.04 128.8 209.76C124 208.373 121.813 205.813 122.24 202.08L122.4 198.4V198.08C122.827 195.52 123.04 193.813 123.04 192.96C123.147 192 123.253 191.307 123.36 190.88C123.573 188.107 124 185.547 124.64 183.2C125.387 180.747 125.92 178.773 126.24 177.28C126.56 175.787 126.88 174.4 127.2 173.12C127.52 171.733 127.733 170.667 127.84 169.92C123.787 175.467 120.907 178.827 119.2 180C114.933 182.987 109.973 184.373 104.32 184.16C100.8 183.947 98.7733 183.147 98.24 181.76C97.1733 178.773 96.4267 177.013 96 176.48C95.36 175.627 94.8267 174.187 94.4 172.16C91.6267 184.427 88.9067 193.12 86.24 198.24C85.1733 200.267 84.1067 202.08 83.04 203.68C81.5467 207.2 78.1333 209.653 72.8 211.04C67.7867 212.427 62.9867 212.32 58.4 210.72C53.7067 209.227 51.4667 206.56 51.68 202.72C51.8933 198.88 52.6933 194.08 54.08 188.32C55.36 182.453 56.9067 176.267 58.72 169.76C64.16 149.173 68 135.787 70.24 129.6C72.5867 123.413 74.56 118.56 76.16 115.04C80 106.827 83.4133 100.853 86.4 97.12C89.7067 90.4 95.2 86.3467 102.88 84.96C108.96 83.7867 114.293 84.5333 118.88 87.2ZM241.985 88.64C242.412 89.92 242.892 90.8267 243.425 91.36C243.958 91.7867 244.332 92.1067 244.545 92.32C245.078 92.8533 244.812 93.8133 243.745 95.2C242.785 97.12 241.452 99.36 239.745 101.92C236.652 106.507 234.678 109.867 233.825 112C229.452 120.747 226.038 128.8 223.585 136.16C221.132 143.413 219.052 149.973 217.345 155.84C215.638 161.707 213.985 166.88 212.385 171.36C210.465 176.587 208.225 180.48 205.665 183.04C204.385 185.173 202.092 186.613 198.785 187.36C195.478 188.107 192.118 188.267 188.705 187.84C185.292 187.307 182.358 186.187 179.905 184.48C177.558 182.773 176.705 180.533 177.345 177.76C178.518 167.733 180.278 159.307 182.625 152.48C185.078 145.653 187.158 140 188.865 135.52C190.678 131.04 192.225 127.04 193.505 123.52C194.785 119.893 195.958 116.8 197.025 114.24C198.198 111.573 199.532 108.8 201.025 105.92C202.518 102.933 204.118 99.9467 205.825 96.96C207.638 93.8667 209.452 91.04 211.265 88.48C215.425 82.6133 218.945 79.1467 221.825 78.08C224.705 76.9067 227.585 76.2133 230.465 76C233.452 75.7867 236.012 76.1067 238.145 76.96C240.385 77.8133 241.932 79.2 242.785 81.12C243.638 83.04 243.372 85.5467 241.985 88.64ZM203.745 209.28C202.572 213.653 200.118 216.907 196.385 219.04C192.758 221.28 188.865 222.453 184.705 222.56C180.545 222.773 176.652 221.973 173.025 220.16C169.505 218.453 167.318 215.733 166.465 212C165.505 208.373 166.038 205.28 168.065 202.72C170.198 200.053 172.705 198.347 175.585 197.6C178.465 196.747 181.825 196.16 185.665 195.84C189.612 195.52 193.185 195.733 196.385 196.48C199.585 197.227 202.038 198.613 203.745 200.64C205.452 202.667 205.452 205.547 203.745 209.28Z" fill="#48C9B0"/>
</g>
<defs>
<filter id="filter0_d_10_4" x="47.3599" y="75.68" width="201.985" height="155.2" filterUnits="userSpaceOnUse" color-interpolation-filters="sRGB">
<feFlood flood-opacity="0" result="BackgroundImageFix"/>
<feColorMatrix in="SourceAlpha" type="matrix" values="0 0 0 0 0 0 0 0 0 0 0 0 0 0 0 0 0 0 127 0" result="hardAlpha"/>
<feOffset dy="4"/>
<feGaussianBlur stdDeviation="2"/>
<feComposite in2="hardAlpha" operator="out"/>
<feColorMatrix type="matrix" values="0 0 0 0 0 0 0 0 0 0 0 0 0 0 0 0 0 0 0.25 0"/>
<feBlend mode="normal" in2="BackgroundImageFix" result="effect1_dropShadow_10_4"/>
<feBlend mode="normal" in="SourceGraphic" in2="effect1_dropShadow_10_4" result="shape"/>
</filter>
</defs>
</svg>
