<svg width="500" height="500" viewBox="0 0 500 500" fill="none" xmlns="http://www.w3.org/2000/svg">
<circle cx="250" cy="250" r="250" fill="black"/>
<circle cx="250.833" cy="249.167" r="245.833" fill="#090808"/>
<circle cx="250" cy="248.333" r="241.667" fill="black"/>
<circle cx="250" cy="250" r="241.667" fill="black"/>
<circle cx="250.806" cy="249.194" r="237.639" fill="#090808"/>
<circle cx="250" cy="248.389" r="233.611" fill="black"/>
<circle cx="246.667" cy="251.667" r="233.333" fill="black"/>
<circle cx="247.444" cy="250.889" r="229.444" fill="#090808"/>
<circle cx="246.667" cy="250.111" r="225.556" fill="black"/>
<circle cx="246.667" cy="251.667" r="225.556" fill="black"/>
<circle cx="247.419" cy="250.915" r="221.796" fill="#090808"/>
<circle cx="246.667" cy="250.163" r="218.037" fill="black"/>
<circle cx="246.667" cy="250" r="216.667" fill="black"/>
<circle cx="247.389" cy="249.278" r="213.056" fill="#090808"/>
<circle cx="246.667" cy="248.556" r="209.444" fill="black"/>
<circle cx="246.667" cy="250" r="209.444" fill="black"/>
<circle cx="247.365" cy="249.302" r="205.954" fill="#090808"/>
<circle cx="246.667" cy="248.604" r="202.463" fill="black"/>
<circle cx="243.778" cy="251.444" r="202.222" fill="black"/>
<circle cx="244.452" cy="250.77" r="198.852" fill="#090808"/>
<circle cx="243.778" cy="250.096" r="195.481" fill="black"/>
<circle cx="243.778" cy="251.444" r="195.481" fill="black"/>
<circle cx="244.43" cy="250.793" r="192.223" fill="#090808"/>
<circle cx="243.778" cy="250.141" r="188.965" fill="black"/>
<circle cx="245.833" cy="250.833" r="187.5" fill="black"/>
<circle cx="246.458" cy="250.208" r="184.375" fill="#090808"/>
<circle cx="245.833" cy="249.583" r="181.25" fill="black"/>
<circle cx="245.833" cy="250.833" r="181.25" fill="black"/>
<circle cx="246.438" cy="250.229" r="178.229" fill="#090808"/>
<circle cx="245.833" cy="249.625" r="175.208" fill="black"/>
<circle cx="243.334" cy="252.083" r="175" fill="black"/>
<circle cx="243.916" cy="251.5" r="172.083" fill="#090808"/>
<circle cx="243.334" cy="250.917" r="169.167" fill="black"/>
<circle cx="243.334" cy="252.083" r="169.167" fill="black"/>
<circle cx="243.898" cy="251.519" r="166.347" fill="#090808"/>
<circle cx="243.334" cy="250.956" r="163.528" fill="black"/>
<circle cx="243.333" cy="250.833" r="162.5" fill="black"/>
<circle cx="243.874" cy="250.292" r="159.792" fill="#090808"/>
<circle cx="243.334" cy="249.75" r="157.083" fill="black"/>
<circle cx="243.334" cy="250.833" r="157.083" fill="black"/>
<circle cx="243.858" cy="250.31" r="154.465" fill="#090808"/>
<circle cx="243.334" cy="249.786" r="151.847" fill="black"/>
<circle cx="241.167" cy="251.917" r="151.667" fill="black"/>
<circle cx="241.672" cy="251.411" r="149.139" fill="#090808"/>
<circle cx="241.167" cy="250.906" r="146.611" fill="black"/>
<circle cx="241.167" cy="251.917" r="146.611" fill="black"/>
<ellipse cx="241.655" cy="251.428" rx="144.168" ry="144.168" fill="#090808"/>
<circle cx="241.167" cy="250.939" r="141.724" fill="black"/>
</svg>
